<?xml version="1.0" encoding="UTF-8"?>
<svg xmlns="http://www.w3.org/2000/svg" xmlns:xlink="http://www.w3.org/1999/xlink" viewBox="0 0 26.52 27">
  <defs>
    <style>
      .cls-1 {
        fill: #ffdd3e;
      }

      .cls-2 {
        isolation: isolate;
      }

      .cls-3 {
        fill: url(#linear-gradient);
      }

      .cls-3, .cls-4 {
        mix-blend-mode: overlay;
      }

      .cls-4 {
        fill: url(#linear-gradient-2);
      }

      .cls-5 {
        fill: #fff;
      }
    </style>
    <linearGradient id="linear-gradient" x1="12.18" y1="9.45" x2="11.32" y2="23.9" gradientUnits="userSpaceOnUse">
      <stop offset="0" stop-color="#75c0ff"/>
      <stop offset=".07" stop-color="#80c5ff" stop-opacity=".85"/>
      <stop offset=".21" stop-color="#94ceff" stop-opacity=".59"/>
      <stop offset=".34" stop-color="#a4d5ff" stop-opacity=".38"/>
      <stop offset=".45" stop-color="#b1dbff" stop-opacity=".22"/>
      <stop offset=".56" stop-color="#badfff" stop-opacity=".1"/>
      <stop offset=".65" stop-color="#c0e2ff" stop-opacity=".03"/>
      <stop offset=".72" stop-color="#c2e3ff" stop-opacity="0"/>
    </linearGradient>
    <linearGradient id="linear-gradient-2" x1="21.01" y1="3.22" x2="20.64" y2="9.39" xlink:href="#linear-gradient"/>
  </defs>
  <g class="cls-2">
    <g id="Layer_2" data-name="Layer 2">
      <g id="Layer_1-2" data-name="Layer 1">
        <g>
          <g>
            <path class="cls-1" d="M11.84,26.47c-.51,0-.93-.37-1-.88-.9-7.04-2.4-8.54-9.44-9.44-.51-.07-.88-.49-.88-1s.37-.93.88-1c7.04-.9,8.54-2.4,9.44-9.44.06-.51.49-.88,1-.88s.93.37,1,.88c.9,7.04,2.4,8.54,9.44,9.44.51.06.88.48.88,1s-.37.93-.88,1c-7.04.9-8.54,2.4-9.44,9.44-.07.51-.49.88-1,.88Z"/>
            <path class="cls-5" d="M11.84,4.36c.22,0,.44.14.48.43.92,7.24,2.65,8.97,9.89,9.89.57.07.57.89,0,.96-7.24.92-8.97,2.65-9.89,9.89-.04.28-.26.43-.48.43s-.44-.14-.48-.43c-.92-7.24-2.65-8.97-9.89-9.89-.57-.07-.57-.89,0-.96,7.24-.92,8.97-2.65,9.89-9.89.04-.28.26-.43.48-.43M11.84,3.31c-.78,0-1.42.56-1.52,1.34-.86,6.78-2.21,8.12-8.99,8.99C.56,13.74,0,14.37,0,15.15c0,.78.56,1.42,1.34,1.52,6.78.86,8.12,2.21,8.99,8.99.1.78.74,1.34,1.52,1.34s1.42-.56,1.52-1.34c.86-6.78,2.21-8.12,8.99-8.99.78-.1,1.34-.74,1.34-1.52,0-.78-.56-1.42-1.34-1.52-6.78-.86-8.12-2.21-8.99-8.99-.1-.78-.74-1.34-1.52-1.34h0Z"/>
          </g>
          <path class="cls-3" d="M20.65,15.29c-7.04.67-8,1.63-8.67,8.67-.02.17-.26.17-.28,0-.67-7.04-1.63-8-8.67-8.67-.17-.02-.17-.26,0-.28,7.04-.67,8-1.63,8.67-8.67.02-.17.26-.17.28,0,.67,7.04,1.63,8,8.67,8.67.17.02.17.26,0,.28Z"/>
        </g>
        <g>
          <g>
            <path class="cls-1" d="M20.86,10.79c-.37,0-.68-.27-.72-.64-.36-2.84-.93-3.41-3.77-3.77-.37-.05-.64-.35-.64-.72s.27-.68.64-.72c2.85-.36,3.41-.93,3.77-3.77.05-.37.35-.64.72-.64s.68.27.72.64c.36,2.84.93,3.41,3.77,3.77.37.05.64.35.64.72s-.27.68-.64.72c-2.85.36-3.41.93-3.77,3.77-.05.37-.35.64-.72.64Z"/>
            <path class="cls-5" d="M20.86,1.04c.09,0,.19.06.21.18.39,3.09,1.13,3.83,4.22,4.22.24.03.24.38,0,.41-3.09.39-3.83,1.13-4.22,4.22-.02.12-.11.18-.21.18s-.19-.06-.21-.18c-.39-3.09-1.13-3.83-4.22-4.22-.24-.03-.24-.38,0-.41,3.09-.39,3.83-1.13,4.22-4.22.02-.12.11-.18.21-.18M20.86,0c-.64,0-1.16.46-1.24,1.09-.33,2.61-.71,2.99-3.32,3.32-.63.08-1.09.6-1.09,1.24,0,.64.46,1.16,1.09,1.24,2.61.33,2.99.71,3.32,3.32.08.63.6,1.09,1.24,1.09s1.16-.46,1.24-1.09c.33-2.61.71-2.99,3.32-3.32.63-.08,1.09-.6,1.09-1.24,0-.64-.46-1.16-1.09-1.24-2.61-.33-2.99-.71-3.32-3.32-.08-.63-.6-1.09-1.24-1.09h0Z"/>
          </g>
          <path class="cls-4" d="M24.62,5.71c-3,.28-3.42.7-3.7,3.7,0,.07-.11.07-.12,0-.28-3-.7-3.42-3.7-3.7-.07,0-.07-.11,0-.12,3-.28,3.42-.7,3.7-3.7,0-.07.11-.07.12,0,.28,3,.7,3.42,3.7,3.7.07,0,.07.11,0,.12Z"/>
        </g>
      </g>
    </g>
  </g>
</svg>