<?xml version="1.0" encoding="UTF-8"?>
<svg xmlns="http://www.w3.org/2000/svg" xmlns:xlink="http://www.w3.org/1999/xlink" viewBox="0 0 45.33 39.03">
  <defs>
    <style>
      .cls-1 {
        fill: #490075;
      }

      .cls-2 {
        fill: #ffdd3e;
      }

      .cls-3 {
        fill: url(#linear-gradient-8);
      }

      .cls-4 {
        fill: url(#linear-gradient-3);
      }

      .cls-5 {
        fill: url(#linear-gradient);
      }

      .cls-6 {
        isolation: isolate;
      }

      .cls-7 {
        fill: url(#linear-gradient-2);
      }

      .cls-7, .cls-8, .cls-9, .cls-10, .cls-11, .cls-12, .cls-13, .cls-14, .cls-15, .cls-16, .cls-17, .cls-18 {
        mix-blend-mode: overlay;
      }

      .cls-8 {
        fill: url(#linear-gradient-4);
      }

      .cls-9 {
        fill: url(#linear-gradient-9);
      }

      .cls-10 {
        fill: url(#linear-gradient-6);
      }

      .cls-11 {
        fill: url(#linear-gradient-5);
      }

      .cls-12 {
        fill: url(#linear-gradient-7);
      }

      .cls-13 {
        fill: url(#linear-gradient-12);
      }

      .cls-14 {
        fill: url(#linear-gradient-11);
      }

      .cls-15 {
        fill: url(#linear-gradient-13);
      }

      .cls-16 {
        fill: url(#linear-gradient-14);
      }

      .cls-17 {
        fill: url(#linear-gradient-16);
      }

      .cls-19 {
        fill: url(#linear-gradient-10);
      }

      .cls-20 {
        fill: url(#linear-gradient-15);
      }

      .cls-18 {
        opacity: .35;
      }
    </style>
    <linearGradient id="linear-gradient" x1="-585.78" y1="116.3" x2="-569.5" y2="116.3" gradientTransform="translate(-470.59 -285.73) rotate(-159.19) scale(1 -1)" gradientUnits="userSpaceOnUse">
      <stop offset="0" stop-color="#5a3c96"/>
      <stop offset="1" stop-color="#593b95"/>
    </linearGradient>
    <linearGradient id="linear-gradient-2" x1="-579.56" y1="125.08" x2="-579.15" y2="119.8" gradientTransform="translate(-470.59 -285.73) rotate(-159.19) scale(1 -1)" gradientUnits="userSpaceOnUse">
      <stop offset=".23" stop-color="#fff"/>
      <stop offset="1" stop-color="#bfbfbf" stop-opacity="0"/>
    </linearGradient>
    <linearGradient id="linear-gradient-3" x1="-592.09" y1="103.31" x2="-571.63" y2="103.31" xlink:href="#linear-gradient"/>
    <linearGradient id="linear-gradient-4" x1="-579.47" y1="94.42" x2="-580.9" y2="101.82" xlink:href="#linear-gradient-2"/>
    <linearGradient id="linear-gradient-5" x1="-584.01" y1="96.07" x2="-582.92" y2="101.14" gradientTransform="translate(-470.59 -285.73) rotate(-159.19) scale(1 -1)" gradientUnits="userSpaceOnUse">
      <stop offset=".02" stop-color="#fff"/>
      <stop offset=".17" stop-color="#f0f0f0" stop-opacity=".77"/>
      <stop offset=".34" stop-color="#e1e1e1" stop-opacity=".54"/>
      <stop offset=".5" stop-color="#d5d5d5" stop-opacity=".34"/>
      <stop offset=".65" stop-color="#cbcbcb" stop-opacity=".19"/>
      <stop offset=".79" stop-color="#c4c4c4" stop-opacity=".09"/>
      <stop offset=".91" stop-color="silver" stop-opacity=".02"/>
      <stop offset="1" stop-color="#bfbfbf" stop-opacity="0"/>
    </linearGradient>
    <linearGradient id="linear-gradient-6" x1="-583.34" y1="96.89" x2="-585.81" y2="98.87" gradientTransform="translate(-203.79 -526.46) rotate(-123.86) scale(1 -1)" xlink:href="#linear-gradient-5"/>
    <linearGradient id="linear-gradient-7" x1="-582.87" y1="97.47" x2="-585.34" y2="99.46" gradientTransform="translate(-203.58 -526.04) rotate(-123.86) scale(1 -1)" xlink:href="#linear-gradient-5"/>
    <linearGradient id="linear-gradient-8" x1="214.67" y1="116.3" x2="230.95" y2="116.3" gradientTransform="translate(-156.26 -166.29) rotate(20.81)" xlink:href="#linear-gradient"/>
    <linearGradient id="linear-gradient-9" x1="220.89" y1="125.08" x2="221.3" y2="119.8" gradientTransform="translate(-156.26 -166.29) rotate(20.81)" xlink:href="#linear-gradient-2"/>
    <linearGradient id="linear-gradient-10" x1="208.36" y1="103.31" x2="228.82" y2="103.31" gradientTransform="translate(-156.26 -166.29) rotate(20.81)" xlink:href="#linear-gradient"/>
    <linearGradient id="linear-gradient-11" x1="220.98" y1="94.42" x2="219.54" y2="101.82" gradientTransform="translate(-156.26 -166.29) rotate(20.81)" xlink:href="#linear-gradient-2"/>
    <linearGradient id="linear-gradient-12" x1="216.44" y1="96.07" x2="217.53" y2="101.14" gradientTransform="translate(-156.26 -166.29) rotate(20.81)" xlink:href="#linear-gradient-5"/>
    <linearGradient id="linear-gradient-13" x1="217.1" y1="96.89" x2="214.63" y2="98.87" gradientTransform="translate(-114 -199.85) rotate(33.86)" xlink:href="#linear-gradient-5"/>
    <linearGradient id="linear-gradient-14" x1="217.58" y1="97.47" x2="215.11" y2="99.46" gradientTransform="translate(-113.82 -199.84) rotate(33.86)" xlink:href="#linear-gradient-5"/>
    <linearGradient id="linear-gradient-15" x1="225.82" y1="103.16" x2="238.22" y2="103.16" gradientTransform="translate(-156.26 -166.29) rotate(20.81)" xlink:href="#linear-gradient"/>
    <linearGradient id="linear-gradient-16" x1="231.29" y1="95.79" x2="231.98" y2="104.61" gradientTransform="translate(-156.26 -166.29) rotate(20.81)" xlink:href="#linear-gradient-2"/>
  </defs>
  <g class="cls-6">
    <g id="Layer_2" data-name="Layer 2">
      <g id="Layer_1-2" data-name="Layer 1">
        <g>
          <g>
            <g>
              <path class="cls-5" d="M32.57,38.87c-.22,0-.46-.26-1.02-.91-.88-1.01-2.21-2.54-3.7-2.8-.24-.04-.48-.06-.7-.06-1.83,0-2.93,1.31-2.94,1.33-.03.04-.08.06-.13.06-.02,0-.04,0-.06-.01-.07-.03-.11-.09-.11-.16.17-4.34-.02-8.68-.2-11.56-.25-3.8-.57-6.47-.57-6.5,0-.04,0-.09.04-.12.03-.04.07-.06.11-.06,0,0,3.37-.28,3.37-.28.06,0,.11.03.14.08,1.56,2.46,2.87,5.29,3.9,8.4,2.08,6.32,2.42,12.3,1.99,12.56-.03.02-.1.03-.13.03Z"/>
              <path class="cls-1" d="M26.67,17.96c1.71,2.7,2.97,5.6,3.88,8.36,2.14,6.53,2.33,12.2,2.06,12.37-.01,0-.03.01-.04.01-.47,0-2.38-3.3-4.69-3.7-.25-.04-.49-.06-.72-.06-1.94,0-3.07,1.39-3.07,1.39.16-4.11.01-8.28-.2-11.58-.25-3.85-.57-6.5-.57-6.5l3.36-.28M26.67,17.63s-.02,0-.03,0l-3.36.28c-.09,0-.17.05-.23.12s-.08.16-.07.25c0,.03.32,2.69.57,6.49.19,2.88.38,7.22.2,11.55,0,.14.08.27.21.32.04.01.08.02.12.02.1,0,.19-.04.26-.12.01-.01,1.07-1.27,2.81-1.27.22,0,.44.02.67.06,1.43.25,2.74,1.75,3.6,2.74.57.66.84.96,1.14.96.06,0,.16-.03.21-.06.68-.4-.02-6.99-1.92-12.76-1.03-3.13-2.35-5.97-3.91-8.44-.06-.1-.17-.15-.28-.15h0Z"/>
            </g>
            <path class="cls-18" d="M23.31,18.24s.32,2.66.57,6.5c.72.75,1.65,1.44,2.78,1.83,1.71.59,3.02.23,3.89-.25-.91-2.76-2.17-5.66-3.88-8.36l-3.36.28Z"/>
            <path class="cls-7" d="M30.32,26.9s.92,3.27,1.62,6.47.18,4.2.14,4.3-1.65-2.34-3.71-3.02-3.46.71-3.63.69-.34-9.04-.34-9.04"/>
          </g>
          <g>
            <g>
              <path class="cls-4" d="M36.08,25.03c-.06,0-.12-.04-.14-.1-.01-.03-1.3-2.99-3.94-3.56-.27-.06-.54-.09-.8-.09-1.46,0-2.39.92-2.95,1.47-.27.27-.42.41-.58.41-.03,0-.08-.01-.11-.02-.1-.05-.4-.21-.76-6.75l.23-1.16.58-2.79c.02-.08.09-.13.16-.13.01,0,.02,0,.03,0,0,0,.29.06.77.06,1.09,0,3.25-.29,5.57-2.25.95-.81,1.98-1.23,2.98-1.23,2.09,0,5.91,1.93,8.02,14.87.03.07,0,.16-.06.2-.03.02-.06.03-.1.03-.04,0-.08-.01-.11-.05-.02-.02-2.13-2.06-4.31-2.06-.15,0-.29,0-.44.03-2.32.31-3.89,3.01-3.9,3.04-.03.05-.08.08-.14.08,0,0,0,0,0,0Z"/>
              <path class="cls-1" d="M37.13,9.05c2.9,0,6.06,3.69,7.86,14.73,0,.03.01.04.01.04,0,0-2.15-2.11-4.43-2.11-.15,0-.31,0-.46.03-2.43.32-4.02,3.12-4.02,3.12,0,0-1.3-3.06-4.06-3.66-.29-.06-.57-.09-.83-.09-2.13,0-3.2,1.88-3.53,1.88-.01,0-.02,0-.03,0-.32-.17-.67-6.62-.67-6.62l.23-1.11.58-2.79s.3.06.81.06c1.14,0,3.33-.31,5.68-2.29.88-.74,1.86-1.19,2.87-1.19M37.13,8.72c-1.03,0-2.1.44-3.08,1.27-2.28,1.92-4.4,2.21-5.46,2.21-.46,0-.74-.05-.74-.06-.02,0-.04,0-.07,0-.15,0-.29.11-.33.26l-.58,2.79-.23,1.12s0,.06,0,.08c.36,6.64.65,6.79.84,6.89.05.03.13.05.19.05.23,0,.39-.16.69-.46.54-.53,1.44-1.42,2.84-1.42.25,0,.5.03.76.08,2.56.55,3.81,3.43,3.82,3.46.05.12.16.19.29.2,0,0,.01,0,.02,0,.12,0,.23-.06.29-.17.02-.03,1.54-2.66,3.78-2.96.14-.02.28-.03.42-.03,2.11,0,4.17,1.99,4.2,2.01.06.06.15.09.23.09.07,0,.13-.02.19-.06.13-.09.18-.26.11-.41-.9-5.56-3.18-14.97-8.17-14.97h0Z"/>
            </g>
            <path class="cls-18" d="M27.2,15.26l-.23,1.11s.35,6.45.67,6.62c.32.16,1.62-2.38,4.39-1.78,2.76.6,4.06,3.66,4.06,3.66,0,0,1.59-2.8,4.02-3.12,2.43-.32,4.89,2.08,4.89,2.08,0,0,0-.01-.01-.04-.14-.42-1.4-4.11-4.23-4.63-3.01-.56-4.59,5.51-4.59,5.51,0,0,.54-4.95-2.56-5.97-3.09-1.02-5.42,3.2-5.42,3.2,0,0-.59-4.61-.99-6.64Z"/>
            <path class="cls-1" d="M27.64,22.99c2.1-5.22,4.99-10.37,9.26-14.12-3.96,4.07-6.75,9.08-9.26,14.12h0Z"/>
            <path class="cls-1" d="M36.09,24.87c1.31-5.14,2.56-10.52,1.66-15.84,1.36,5.24.07,10.84-1.66,15.84h0Z"/>
            <path class="cls-8" d="M28.44,13.05l-.13,6.48,15.49.69s-.1-.43-.28-1.11c-.58-2.15-2.02-6.86-3.91-8.54-2.02-1.79-3.18-1.28-4.98-.06-.4.28-.85.6-1.34.94-2.63,1.81-4.85,1.6-4.85,1.6Z"/>
            <path class="cls-11" d="M34.63,10.51c1.09-.42,1.88-1.36,3.38-.8,3.33,1.23,5.5,9.43,5.5,9.43v-.02c-.57-2.15-2.01-6.86-3.9-8.54-2.02-1.79-3.18-1.28-4.98-.06Z"/>
            <ellipse class="cls-10" cx="40.7" cy="12.72" rx=".37" ry=".71" transform="translate(.14 25.88) rotate(-35.34)"/>
            <ellipse class="cls-12" cx="40.14" cy="13.26" rx=".24" ry=".37" transform="translate(-.27 25.66) rotate(-35.34)"/>
          </g>
          <g>
            <g>
              <path class="cls-3" d="M8.27,30.48s-.04,0-.06-.01c-.07-.03-.11-.09-.11-.16,0-.02.06-2.16-1.88-3.36-.59-.37-1.39-.54-2.44-.54-.79,0-1.56.1-2.19.18-.41.05-.76.1-.98.1h0c-.12,0-.38,0-.45-.21-.15-.48,4.08-4.72,9.83-8.07,2.84-1.65,5.69-2.89,8.49-3.69.02,0,.03,0,.05,0,.04,0,.09.02.12.05l2.33,2.44s.05.08.05.12-.02.09-.06.12c-.02.02-2.03,1.8-4.74,4.48-2.06,2.03-5.08,5.15-7.83,8.51-.03.04-.08.06-.13.06Z"/>
              <path class="cls-1" d="M18.53,14.87l2.33,2.44s-2,1.77-4.75,4.48c-2.35,2.32-5.24,5.34-7.84,8.52,0,0,.09-2.24-1.96-3.51-.71-.44-1.63-.57-2.53-.57-1.32,0-2.61.28-3.17.28-.17,0-.27-.02-.29-.09-.1-.3,3.82-4.42,9.75-7.88,2.51-1.46,5.38-2.79,8.45-3.68M18.53,14.54s-.06,0-.09.01c-2.81.81-5.68,2.06-8.53,3.71C4.67,21.31-.23,25.77,0,26.52c.1.32.48.32.61.32.24,0,.58-.04,1.01-.1.62-.08,1.39-.18,2.16-.18,1.02,0,1.79.17,2.35.52,1.85,1.15,1.8,3.13,1.8,3.21,0,.14.08.27.21.32.04.01.08.02.12.02.1,0,.19-.04.26-.12,2.74-3.35,5.77-6.47,7.82-8.5,2.7-2.67,4.71-4.45,4.73-4.47.07-.06.11-.14.11-.23s-.03-.18-.09-.24l-2.33-2.44c-.06-.07-.15-.1-.24-.1h0Z"/>
            </g>
            <path class="cls-18" d="M20.86,17.31s-2,1.77-4.75,4.48c-1.04.08-2.19-.02-3.3-.48-1.67-.7-2.41-1.83-2.74-2.77,2.51-1.46,5.38-2.79,8.45-3.68l2.33,2.44Z"/>
            <path class="cls-9" d="M9.87,19.13s-2.86,1.83-5.5,3.76-2.92,3.02-2.96,3.13,2.79-.65,4.78.2,2.11,2.83,2.25,2.92,6.26-6.53,6.26-6.53"/>
          </g>
          <g>
            <g>
              <path class="cls-19" d="M14.43,18.15c-.21-.06-.23-.3-.26-.74-.06-.89-.17-2.55-1.89-3.52-.69-.39-1.49-.58-2.38-.58-1.58,0-2.92.62-2.93.63-.02.01-.05.02-.07.02-.04,0-.07-.01-.1-.04-.05-.04-.07-.1-.06-.16,0-.03.63-3.09-.9-4.86-1.31-1.52-3.92-1.64-4.69-1.64-.13,0-.22,0-.22,0-.08,0-.14-.05-.16-.13-.02-.08.02-.16.1-.19C6.38,2.44,10.76.17,13.88.17c2.39,0,3.9,1.38,4.26,3.87.62,4.26,3.26,5.83,3.29,5.85.08.05.11.15.06.23l-1.99,3.45c-1.71,1.73-4.6,4.59-5.02,4.59-.01,0-.04,0-.05,0Z"/>
              <path class="cls-1" d="M13.88.33c2.54,0,3.79,1.6,4.09,3.73.64,4.4,3.37,5.97,3.37,5.97l-1.42,2.47-.57.99s-4.46,4.5-4.88,4.5c0,0,0,0-.01,0-.34-.09.36-2.86-2.1-4.25-.8-.45-1.67-.61-2.46-.61-1.64,0-3,.65-3,.65,0,0,.67-3.15-.94-5.01-1.36-1.57-4.03-1.7-4.81-1.7-.14,0-.22,0-.22,0,0,0,.01,0,.04-.02C7.01,2.15,11.18.33,13.88.33M13.88,0h0C10.72,0,6.31,2.29.76,6.8c-.15.07-.21.21-.17.37.04.15.19.24.34.24,0,0,.01,0,.02,0,0,0,.08,0,.2,0,.75,0,3.3.11,4.56,1.58,1.48,1.71.87,4.69.86,4.72-.03.12.02.25.12.33.06.05.13.07.21.07.05,0,.1-.01.14-.03.01,0,1.32-.62,2.86-.62.86,0,1.64.19,2.3.56,1.64.92,1.74,2.53,1.8,3.39.03.47.05.8.38.89.03,0,.07.01.1.01.15,0,.56,0,5.12-4.6.02-.02.04-.04.05-.07l.57-.99,1.42-2.47c.09-.16.04-.36-.12-.45-.03-.02-2.6-1.56-3.21-5.73-.36-2.55-1.97-4.01-4.42-4.01h0Z"/>
            </g>
            <path class="cls-18" d="M19.93,12.5l-.57.99s-4.55,4.59-4.89,4.5c-.34-.09.36-2.86-2.1-4.25-2.46-1.39-5.46.04-5.46.04,0,0,.67-3.15-.94-5.01-1.61-1.86-5.03-1.69-5.03-1.69,0,0,.01,0,.04-.02.38-.22,3.77-2.14,6.24-.65,2.62,1.58-.23,7.17-.23,7.17,0,0,2.88-4.06,5.88-2.77,2.99,1.29,1.92,5.99,1.92,5.99,0,0,3.5-3.05,5.15-4.3Z"/>
            <path class="cls-1" d="M14.47,17.98c1.47-5.44,2.7-11.04,2.45-16.71.7,5.65-.55,11.41-2.45,16.71h0Z"/>
            <path class="cls-1" d="M6.9,13.78C8.92,8.89,11.68,3.85,16.18.84c-4.2,3.37-6.84,8.23-9.27,12.94h0Z"/>
            <path class="cls-14" d="M20.47,10.02l-4.2,4.93L4.23,5.18s.36-.25.95-.64c1.86-1.23,6.06-3.79,8.6-3.79,2.7,0,3.23,1.15,3.76,3.26.11.48.23,1.01.37,1.59.76,3.1,2.57,4.41,2.57,4.41Z"/>
            <path class="cls-13" d="M17.53,4.01c-.54-1.04-.5-2.26-1.99-2.85C12.23-.13,5.16,4.56,5.16,4.56v-.02c1.87-1.23,6.07-3.79,8.61-3.79,2.7,0,3.23,1.15,3.76,3.26Z"/>
            <ellipse class="cls-15" cx="11.53" cy="1.63" rx=".71" ry=".37" transform="translate(-.07 2.65) rotate(-13.05)"/>
            <ellipse class="cls-16" cx="11.59" cy="2.41" rx=".37" ry=".24" transform="translate(-.24 2.68) rotate(-13.05)"/>
          </g>
          <g>
            <g>
              <path class="cls-20" d="M25,18.85c-1.58,0-3.02-.55-3.17-.62-.44-.16-4.23-1.62-4.42-4.68v-.12c-.11-2.84,2.13-3.76,2.53-3.91.45-.71,2.3-3.63,2.68-3.87.03-.02.1-.04.13-.04.13,0,.52,0,1.22,3.55l1.14.4,1.14.47c.56-.43,2.56-1.91,3.09-1.91.15,0,.23.09.25.18.11.43-.43,3.84-.57,4.67.21.38,1.29,2.63-.79,4.7-.12.12-.26.24-.39.33-.74.56-1.7.85-2.85.85Z"/>
              <path class="cls-1" d="M22.76,5.78c.39,0,1.07,3.51,1.07,3.51l1.23.43h0s1.21.5,1.21.5c0,0,2.53-1.94,3.06-1.94.05,0,.08.02.09.06.11.43-.58,4.66-.58,4.66,0,0,1.47,2.35-.73,4.55-.12.11-.24.22-.37.31-.82.62-1.81.82-2.75.82-1.64,0-3.1-.6-3.12-.61-.02,0-4.12-1.45-4.31-4.53,0-.05,0-.09,0-.13-.11-3,2.48-3.75,2.48-3.75,0,0,2.28-3.63,2.66-3.87.01,0,.03-.01.04-.01M22.76,5.45c-.06,0-.17.03-.22.07-.38.25-1.97,2.72-2.7,3.87-.55.21-2.69,1.22-2.59,4.04,0,.05,0,.09,0,.13.2,3.25,4.35,4.77,4.52,4.84.15.06,1.61.63,3.23.63,1.19,0,2.18-.3,2.95-.89.12-.09.25-.2.4-.34,2.08-2.07,1.12-4.32.85-4.85.22-1.35.67-4.25.55-4.69-.05-.18-.21-.3-.41-.3-.55,0-2.26,1.24-3.11,1.89l-1.03-.42-1.08-.38c-.71-3.59-1.12-3.59-1.36-3.59h0Z"/>
            </g>
            <path class="cls-17" d="M17.9,13.45s-.27-1.28.65-2.33,1.49-1.04,1.76-1.16,1.99-3.72,2.37-3.64.79,3.18.94,3.23,2.58.94,2.74,1,2.6-2.05,2.81-1.69-.82,3.88-.68,4.09.96,1.47.22,3.21-2.14,1.91-2.14,1.91"/>
            <path class="cls-18" d="M27.76,17.86c-2.24,1.7-5.84.22-5.87.21-.02,0-4.12-1.45-4.31-4.53,0-.05,0-.09,0-.13.43,1.21,1.43,2.81,3.75,3.86,2.87,1.29,5.25.94,6.43.59Z"/>
            <g>
              <path class="cls-2" d="M24.46,14.21s2.73-.5,2.72-.43-1.8,2.29-2.07,2.11-.65-1.68-.65-1.68Z"/>
              <path class="cls-2" d="M21.61,15.34s1.6-.81,1.8-.75.66,1.71.63,1.79-.85-.59-1.1-.68-1.32-.35-1.32-.35Z"/>
              <path class="cls-2" d="M24.37,17.43s.34-1.14.5-1.17,1.88.34,1.92.43-2.42.75-2.42.75Z"/>
              <path class="cls-2" d="M22.77,13.57s-1.71-2.18-1.75-2.12-.18,2.9.15,2.95,1.6-.83,1.6-.83Z"/>
              <path class="cls-2" d="M20.7,16.03s.5-1.08.4-1.21-1.63-1-1.72-.96,1.32,2.17,1.32,2.17Z"/>
            </g>
          </g>
        </g>
      </g>
    </g>
  </g>
</svg>