<?xml version="1.0" encoding="UTF-8"?>
<svg xmlns="http://www.w3.org/2000/svg" xmlns:xlink="http://www.w3.org/1999/xlink" viewBox="0 0 24.14 30.73">
  <defs>
    <style>
      .cls-1 {
        fill: #34254a;
      }

      .cls-2 {
        fill: #490075;
      }

      .cls-3 {
        fill: #ffdd3e;
      }

      .cls-4 {
        fill: #200f3b;
      }

      .cls-5 {
        fill: url(#linear-gradient);
      }

      .cls-6 {
        fill: #7c53cf;
      }

      .cls-7 {
        isolation: isolate;
      }

      .cls-8 {
        fill: #f041b5;
      }

      .cls-9 {
        fill: url(#linear-gradient-2);
      }

      .cls-9, .cls-10, .cls-11, .cls-12, .cls-13, .cls-14, .cls-15 {
        mix-blend-mode: overlay;
      }

      .cls-10 {
        fill: url(#linear-gradient-3);
      }

      .cls-11 {
        fill: url(#linear-gradient-4);
      }

      .cls-12 {
        fill: url(#linear-gradient-6);
      }

      .cls-13 {
        fill: url(#linear-gradient-5);
      }

      .cls-14 {
        opacity: .5;
      }

      .cls-15 {
        opacity: .23;
      }
    </style>
    <linearGradient id="linear-gradient" x1=".17" y1="15.36" x2="23.97" y2="15.36" gradientUnits="userSpaceOnUse">
      <stop offset="0" stop-color="#844d24"/>
      <stop offset=".21" stop-color="#864e25"/>
      <stop offset="1" stop-color="#8c5329"/>
    </linearGradient>
    <linearGradient id="linear-gradient-2" x1=".31" y1="-1.22" x2="13.38" y2="24.11" gradientUnits="userSpaceOnUse">
      <stop offset=".23" stop-color="#fff"/>
      <stop offset=".3" stop-color="#fdfdfd" stop-opacity=".97"/>
      <stop offset=".4" stop-color="#f8f8f8" stop-opacity=".9"/>
      <stop offset=".51" stop-color="#f1f1f1" stop-opacity=".79"/>
      <stop offset=".64" stop-color="#e7e7e7" stop-opacity=".63"/>
      <stop offset=".77" stop-color="#d9d9d9" stop-opacity=".42"/>
      <stop offset=".91" stop-color="#c9c9c9" stop-opacity=".17"/>
      <stop offset="1" stop-color="#bfbfbf" stop-opacity="0"/>
    </linearGradient>
    <linearGradient id="linear-gradient-3" x1="1.69" y1="-1.82" x2="7.79" y2="10.15" gradientUnits="userSpaceOnUse">
      <stop offset=".09" stop-color="#fff"/>
      <stop offset=".63" stop-color="#d8d8d8" stop-opacity=".4"/>
      <stop offset="1" stop-color="#bfbfbf" stop-opacity="0"/>
    </linearGradient>
    <linearGradient id="linear-gradient-4" x1="4.47" y1="2.47" x2="4.79" y2="14.51" gradientUnits="userSpaceOnUse">
      <stop offset=".09" stop-color="#fff"/>
      <stop offset=".6" stop-color="#d8d8d8" stop-opacity=".4"/>
      <stop offset=".95" stop-color="#bfbfbf" stop-opacity="0"/>
    </linearGradient>
    <linearGradient id="linear-gradient-5" x1="7.94" y1="3.78" x2="12.24" y2="6.76" gradientTransform="translate(10.04 -5.96) rotate(63.92)" xlink:href="#linear-gradient-2"/>
    <linearGradient id="linear-gradient-6" x1="7.31" y1="4.69" x2="11.6" y2="7.67" gradientTransform="translate(11.7 -5.4) rotate(63.92)" xlink:href="#linear-gradient-2"/>
  </defs>
  <g class="cls-7">
    <g id="Layer_2" data-name="Layer 2">
      <g id="Layer_1-2" data-name="Layer 1">
        <g>
          <g>
            <path class="cls-5" d="M4.55,30.56c-.11,0-2.63-.2-3.84-2.24-.49-.84.09-1.9.44-2.42-.42,0-.72-.12-.87-.35-.16-.24-.15-.57.02-.98.42-.98.91-1.45,1.18-1.65-.55-.5-1.44-1.42-1.09-1.87.26-.35.8-.4,1.11-.42-.49-.91-1.7-3.72-1.18-7.61.05-.36.08-.74.11-1.13.11-1.47.1-3.14.09-4.76-.02-3.65-.03-6.8,1.28-6.94.1-.01.19-.02.29-.02.89,0,1.64.49,2.67,1.17,1.02.67,2.42,1.58,4.6,2.45,2.53,1.01,4.65,2.28,6.31,3.78,2.06,1.84,3.02,3.65,3.45,4.79.05-.35.14-.68.32-.87.11-.12.25-.18.41-.18.22,0,.46.12.74.36.87.75,1.16,1.95,1.25,2.92.15-.33.37-.59.66-.59.21,0,.41.12.62.38,1,1.2.83,3.83.82,3.94,0,.07-.05.13-.12.15-.02,0-.03,0-.05,0-.05,0-.1-.02-.13-.06h0s-.07-.04-.22-.04c-.11,0-.23.02-.37.06-.64.18-1.88.84-4.12,2.93-3.49,3.26-11.01,7.44-14.08,9.08-.14.07-.21.11-.22.11-.02.01-.05.02-.08.02h-.01Z"/>
            <path class="cls-4" d="M2.1.33c1.68,0,2.83,1.86,7.21,3.61,2.8,1.12,4.8,2.43,6.26,3.75,2.88,2.57,3.56,5.06,3.7,5.7-.03-.47-.05-1.91.59-1.91.16,0,.37.09.63.32,1.34,1.16,1.24,3.49,1.22,3.93.05-.31.28-1.56.8-1.56.14,0,.3.09.49.31.97,1.16.78,3.82.78,3.82,0,0-.09-.11-.35-.11-.11,0-.24.02-.42.06-.7.2-1.96.89-4.19,2.97-3.8,3.55-12.56,8.26-14.05,9.05-.15.07-.22.11-.22.11,0,0-2.53-.17-3.71-2.16-.61-1.03.65-2.53.65-2.53,0,0-.15.03-.34.03-.44,0-1.1-.15-.7-1.1.58-1.38,1.31-1.69,1.31-1.69,0,0-1.57-1.36-1.23-1.8.32-.43,1.22-.31,1.22-.39-.03-.07-1.87-3.12-1.25-7.72.05-.37.08-.74.11-1.14C.96,7.24.13.54,1.84.35c.09-.01.18-.02.27-.02M2.1,0c-.1,0-.2,0-.3.02C.34.18.35,3.24.37,7.12c0,1.62.02,3.29-.09,4.75-.03.4-.06.76-.11,1.12-.49,3.63.51,6.33,1.07,7.49-.33.04-.73.14-.97.46-.38.5.25,1.3.96,1.96-.3.26-.71.74-1.08,1.59-.2.47-.2.86,0,1.14.11.16.31.34.72.41-.36.6-.76,1.56-.29,2.35,1.26,2.12,3.86,2.32,3.97,2.33,0,0,.01,0,.02,0,.06,0,.12-.02.17-.04,0,0,.07-.04.2-.11,3.08-1.65,10.62-5.83,14.12-9.11,2.21-2.06,3.42-2.71,4.05-2.89.12-.03.24-.05.33-.05.07,0,.11.01.13.02.06.06.14.09.23.09.03,0,.07,0,.1-.02.13-.04.22-.16.23-.3,0-.11.19-2.81-.86-4.06-.24-.29-.49-.43-.75-.43-.22,0-.41.1-.56.27-.14-.89-.48-1.89-1.25-2.56-.31-.27-.59-.4-.85-.4-.2,0-.39.08-.53.23-.11.11-.19.26-.25.43-.51-1.15-1.48-2.75-3.29-4.37-1.66-1.51-3.8-2.79-6.35-3.81-2.17-.86-3.55-1.77-4.57-2.44-1.06-.69-1.83-1.2-2.77-1.2h0Z"/>
          </g>
          <path class="cls-15" d="M23.79,18.3s-.79-.97-4.96,2.92c-4.17,3.88-14.27,9.17-14.27,9.17,0,0-2.53-.17-3.71-2.16-.61-1.03.65-2.53.65-2.53,0,0-1.62.3-1.04-1.08.58-1.38,1.31-1.69,1.31-1.69,0,0-1.57-1.36-1.23-1.8.32-.43,1.22-.31,1.22-.39-.03-.07-1.87-3.12-1.25-7.72.05-.37.08-.74.11-1.14.8,1.68,1.99,3.4,3.78,4.59,4.66,3.13,9.1,2.93,11.06-2.57.77-2.16.61-4.37.11-6.23,3.03,2.7,3.62,5.33,3.71,5.79-.03-.44-.15-2.85,1.21-1.68,1.34,1.16,1.24,3.49,1.22,3.93.06-.4.42-2.3,1.29-1.24.97,1.16.78,3.82.78,3.82Z"/>
          <path class="cls-9" d="M23.79,18.3s-.17-.21-.77-.04c.1-1.07.17-2.5-.18-2.97-.58-.77-1.25,1.58-1.36,1.51-.11-.06-.29-3.25-.96-4.18-.67-.93-.99,1.93-1.02,1.99-.04,0-2.73-6.78-8.04-9.04C6.12,3.32,4.25,1.95,2.69,1,1.13.04.93,3.2,1.26,7.03c.32,3.83-.84,5.63-.29,9.61.55,3.99,1.72,4.8,1.72,4.8,0,0-1.43-.22-1.4.22.03.43,1.38,1.62,1.38,1.62,0,0-1.43.78-1.55,1.43-.11.65,1.24.68,1.24.68,0,0-1.23,1.23-.93,2.65.23,1.1,2.37,1.91,3.34,2.23-.15.07-.22.11-.22.11,0,0-2.53-.17-3.71-2.16-.61-1.03.65-2.53.65-2.53,0,0-1.62.3-1.04-1.08.58-1.38,1.31-1.69,1.31-1.69,0,0-1.57-1.36-1.23-1.8.32-.43,1.22-.31,1.22-.39-.03-.07-1.87-3.12-1.25-7.72.05-.37.08-.74.11-1.14C.96,7.24.13.54,1.84.35c1.84-.21,2.87,1.75,7.48,3.59,2.8,1.12,4.8,2.43,6.26,3.75,2.88,2.57,3.56,5.06,3.7,5.7-.03-.6-.06-2.7,1.22-1.6,1.34,1.16,1.24,3.49,1.22,3.93.06-.4.42-2.3,1.29-1.24.97,1.16.78,3.82.78,3.82Z"/>
          <g>
            <path class="cls-8" d="M8.84,23.84s-3.75-.31-5.24-3.37c0,0-1.19-1.75-1.42-6.03-.01-.37-.03-.76-.03-1.18-.04-5.12.47-8.29.47-8.29,0,0-.27-1.99.69-1.89.96.09,4.35,3.28,4.09,7.54-.2,3.33-.08,5.8.5,7.6.16.5.36.96.6,1.37,0,0-.87-.4-1.88-1.32-1.01-.92-.73,3.82,2.22,5.57Z"/>
            <path class="cls-14" d="M8.84,23.84s-3.75-.31-5.24-3.37c0,0-1.19-1.75-1.42-6.03.61.76,1.34,1.47,2.21,2.06,1.2.8,2.38,1.39,3.51,1.72.16.5.36.96.6,1.37,0,0-.87-.4-1.88-1.32-1.01-.92-.73,3.82,2.22,5.57Z"/>
            <path class="cls-10" d="M17.46,11.76s-2.64-4.29-5.53-5.53S4.55,3.1,3.37,1.94s-1.91-.47-1.78,3.67-.2,5.84-.33,7.84.09.84.09.84"/>
            <path class="cls-1" d="M2.59,4.97c-.51-3.35,1.83-1.83,3.06-.25,1.78,2.02,2.18,4.79,1.79,7.37-.11,2.48-.05,5.23,1.23,7.4,0,0,.35.58.35.58-.93-.4-1.85-.96-2.58-1.62-.06-.05-.08-.03-.02-.04-.13.42-.03,1.13.11,1.64.43,1.91,1.73,3.32,3.42,4.19-2.55-.18-5.32-1.26-6.37-3.76.64.8,1.26,1.67,2.3,2.18.92.5,1.96.84,2.99.94l-.15.46c-1.43-.82-2.33-2.32-2.73-3.88-.13-.61-.25-1.24-.08-1.87.05-.11.1-.28.33-.38.25-.07.42.06.5.13.58.52,1.17.99,1.83,1.35l-.26.29c-1.61-3.17-.87-6.78-1.12-10.15-.32-2.41-1.61-4.92-3.68-6.24-.93-.41-.9,1.08-.88,1.67,0,0-.05,0-.05,0h0Z"/>
          </g>
          <g>
            <g>
              <path class="cls-3" d="M9,9.83s-.05,0-.08-.02c-.04-.03-.07-.07-.08-.12l-.18-2.03c0-.06.03-.12.08-.15.02-.01.05-.02.07-.02.03,0,.07.01.09.03l1.69,1.32s.06.08.06.14c0,.05-.04.1-.09.12l-1.5.71s-.04.01-.06.01Z"/>
              <path class="cls-2" d="M8.81,7.64l1.69,1.32-1.5.7-.18-2.03M8.81,7.34s-.1.01-.14.04c-.11.06-.17.17-.16.29l.18,2.03c0,.1.07.19.15.24.05.03.1.04.15.04.04,0,.09,0,.13-.03l1.5-.7c.1-.04.16-.14.17-.24.01-.1-.03-.21-.11-.27l-1.69-1.32c-.05-.04-.12-.06-.19-.06h0Z"/>
            </g>
            <g>
              <path class="cls-3" d="M11.75,14.86c-.42,0-.78-.31-.83-.73-.05-.46.27-.87.73-.93,0,0,.09,0,.1,0,.42,0,.78.31.83.73.05.46-.27.87-.73.93,0,0-.09,0-.1,0Z"/>
              <path class="cls-2" d="M11.75,13.34c.34,0,.63.25.68.6.04.37-.22.71-.6.76-.03,0-.06,0-.08,0-.34,0-.63-.25-.68-.6-.04-.37.22-.71.6-.76.03,0,.05,0,.08,0M11.75,13.04s-.08,0-.12,0c-.54.06-.92.56-.86,1.09.06.49.48.87.98.87.04,0,.08,0,.12,0,.26-.03.49-.16.66-.37.16-.21.23-.46.2-.73-.06-.49-.48-.87-.98-.87h0Z"/>
            </g>
            <g>
              <path class="cls-6" d="M11.03,12.53s-.09-.02-.12-.06c-.41-.51-.92-.56-1.12-.56,0,0-.01,0-.02,0-.07,0-.17-.04-.19-.11-.02-.07-.03-.15.04-.18.75-.36.49-1.25.48-1.29-.02-.08.02-.15.09-.18.02,0,.04-.01.06-.01.06,0,.11.03.13.08.32.62,1.16.64,1.17.64.06,0,.12.04.14.1.02.06,0,.12-.04.17-.5.46-.47,1.23-.47,1.24,0,.07-.04.13-.1.15-.02,0-.04,0-.05,0Z"/>
              <path class="cls-2" d="M10.24,10.3c.36.71,1.3.72,1.3.72-.56.52-.52,1.36-.52,1.36-.45-.56-1.01-.62-1.24-.62-.07,0-.1,0-.1,0,.88-.42.56-1.47.56-1.47M10.24,9.99s-.08,0-.11.02c-.14.06-.22.22-.18.37h0c.02.08.21.81-.4,1.11-.13.06-.2.22-.16.36.04.13.16.22.29.22.01,0,.03,0,.04,0,0,0,.03,0,.06,0,.18,0,.63.05,1.01.51.06.07.15.11.24.11.04,0,.07,0,.11-.02.12-.05.2-.17.19-.3,0,0-.03-.71.42-1.12.09-.08.12-.22.08-.33-.04-.12-.15-.19-.28-.19,0,0-.76-.02-1.04-.56-.05-.1-.16-.16-.27-.16h0Z"/>
            </g>
          </g>
          <path class="cls-11" d="M2.44,13.83s.12-3.23.32-6.42.43-3.77,1.9-2.28,2.48,3.77,2.28,5.78-.27,3.6.22,5.27"/>
          <ellipse class="cls-13" cx="9.8" cy="5.07" rx=".73" ry="1.55" transform="translate(.94 11.64) rotate(-63.92)"/>
          <ellipse class="cls-12" cx="10.18" cy="6.68" rx=".48" ry=".76" transform="translate(-.3 12.88) rotate(-63.92)"/>
        </g>
      </g>
    </g>
  </g>
</svg>