<?xml version="1.0" encoding="UTF-8"?>
<svg xmlns="http://www.w3.org/2000/svg" xmlns:xlink="http://www.w3.org/1999/xlink" viewBox="0 0 28.09 24.23">
  <defs>
    <style>
      .cls-1 {
        fill: url(#linear-gradient-3);
      }

      .cls-2 {
        fill: url(#linear-gradient-2);
      }

      .cls-3 {
        fill: url(#linear-gradient);
      }

      .cls-4 {
        isolation: isolate;
      }

      .cls-5 {
        fill: url(#linear-gradient-8);
      }

      .cls-5, .cls-6, .cls-7, .cls-8, .cls-9, .cls-10, .cls-11, .cls-12, .cls-13, .cls-14 {
        mix-blend-mode: overlay;
      }

      .cls-6 {
        fill: url(#linear-gradient-4);
      }

      .cls-7 {
        fill: url(#linear-gradient-9);
      }

      .cls-8 {
        fill: url(#linear-gradient-6);
      }

      .cls-9 {
        fill: url(#linear-gradient-5);
      }

      .cls-10 {
        fill: url(#linear-gradient-7);
      }

      .cls-15 {
        fill: #b50d90;
      }

      .cls-16 {
        fill: #fff;
      }

      .cls-11 {
        fill: url(#linear-gradient-10);
      }

      .cls-12 {
        fill: url(#linear-gradient-12);
      }

      .cls-13 {
        fill: url(#linear-gradient-11);
      }

      .cls-14 {
        fill: url(#linear-gradient-13);
      }

      .cls-17 {
        fill: #ff57d9;
      }
    </style>
    <linearGradient id="linear-gradient" x1="13.63" y1="6.93" x2="86.22" y2="83.63" gradientUnits="userSpaceOnUse">
      <stop offset="0" stop-color="#ec36c3"/>
      <stop offset=".1" stop-color="#ef3ac6"/>
      <stop offset=".6" stop-color="#fa49d3"/>
      <stop offset="1" stop-color="#ff4fd8"/>
    </linearGradient>
    <linearGradient id="linear-gradient-2" x1="14.03" y1="17.11" x2="47.67" y2="52.64" xlink:href="#linear-gradient"/>
    <linearGradient id="linear-gradient-3" x1="14.11" y1="12.56" x2="25.41" y2="24.5" xlink:href="#linear-gradient"/>
    <linearGradient id="linear-gradient-4" x1="590.49" y1="1.08" x2="595.41" y2="12.13" gradientTransform="translate(613.64 .09) rotate(-179.98) scale(1 -1)" gradientUnits="userSpaceOnUse">
      <stop offset=".23" stop-color="#fff"/>
      <stop offset="1" stop-color="#bfbfbf" stop-opacity="0"/>
    </linearGradient>
    <linearGradient id="linear-gradient-5" x1="591.27" y1="2.71" x2="593.4" y2="4.57" gradientTransform="translate(613.79) rotate(-180) scale(1 -1)" xlink:href="#linear-gradient-4"/>
    <linearGradient id="linear-gradient-6" x1="591.35" y1="2.61" x2="593.49" y2="4.47" gradientTransform="translate(613.79) rotate(-180) scale(1 -1)" xlink:href="#linear-gradient-4"/>
    <linearGradient id="linear-gradient-7" x1="4.79" y1=".9" x2="9.71" y2="11.95" gradientTransform="translate(.14 .09) rotate(-.02)" xlink:href="#linear-gradient-4"/>
    <linearGradient id="linear-gradient-8" x1="5.57" y1="2.71" x2="7.71" y2="4.57" gradientTransform="matrix(1,0,0,1,0,0)" xlink:href="#linear-gradient-4"/>
    <linearGradient id="linear-gradient-9" x1="5.66" y1="2.61" x2="7.8" y2="4.47" gradientTransform="matrix(1,0,0,1,0,0)" xlink:href="#linear-gradient-4"/>
    <linearGradient id="linear-gradient-10" x1="13.96" y1="5.3" x2="13.96" y2="8.42" gradientTransform="matrix(1,0,0,1,0,0)" xlink:href="#linear-gradient-4"/>
    <linearGradient id="linear-gradient-11" x1="14.67" y1="13.71" x2="13.84" y2="19.96" gradientTransform="matrix(1,0,0,1,0,0)" xlink:href="#linear-gradient-4"/>
    <linearGradient id="linear-gradient-12" x1="177.57" y1="91.35" x2="179.26" y2="93.14" gradientTransform="translate(107.59 -161.54) rotate(90)" xlink:href="#linear-gradient-4"/>
    <linearGradient id="linear-gradient-13" x1="177.66" y1="91.15" x2="179.35" y2="92.94" gradientTransform="translate(108.9 -161.54) rotate(90)" xlink:href="#linear-gradient-4"/>
  </defs>
  <g class="cls-4">
    <g id="Layer_2" data-name="Layer 2">
      <g id="Layer_1-2" data-name="Layer 1">
        <g>
          <g>
            <g>
              <path class="cls-3" d="M22,14.96c-3.38,0-6.49-2.61-7.85-4.17-.07,0-.15.01-.22.01h0c-1.42,1.64-4.47,4.16-7.84,4.16-.32,0-.64-.02-.95-.07C2.03,14.43.36,10.2.53,6.37.69,2.91,2.33.68,4.82.54c.15,0,.31-.01.46-.01,3.52,0,6.6,2.44,8.24,4.03.15-.03.28-.04.42-.04.2,0,.39.03.6.08,1.65-1.62,4.74-4.07,8.28-4.07.15,0,.3,0,.45.01,2.49.14,4.13,2.38,4.29,5.83.17,3.83-1.5,8.06-4.6,8.52-.32.05-.64.07-.96.07ZM5.36,5.05c-.26.49-.73,2.73-.18,4.31.33.96.82.97,1.02.97,1.34,0,2.97-.79,4.91-2.34-.01-.11-.02-.23-.02-.34,0-.08,0-.16,0-.23-1.91-1.35-4.55-2.37-5.65-2.37-.04,0-.07,0-.09,0ZM16.77,7.83c.95.79,3.15,2.51,5.05,2.51.27,0,.75-.01,1.08-.97.55-1.57.09-3.79-.18-4.31-.02,0-.05,0-.09,0-1.15,0-3.95,1.11-5.86,2.53,0,.03,0,.19,0,.25Z"/>
              <path class="cls-16" d="M22.82,1.04c.14,0,.28,0,.42.01,2.2.13,3.65,2.17,3.79,5.34.16,3.52-1.38,7.57-4.16,7.98-.29.04-.58.06-.88.06-3.3,0-6.39-2.66-7.64-4.21-.14.03-.28.05-.43.05-.08,0-.15-.02-.23-.03-1.26,1.55-4.33,4.19-7.62,4.19-.3,0-.59-.02-.88-.06-2.77-.41-4.31-4.46-4.15-7.98.14-3.17,1.6-5.21,3.79-5.34.14,0,.28-.01.43-.01,3.5,0,6.57,2.57,8.08,4.08.19-.05.38-.09.58-.09.26,0,.51.06.74.15,1.49-1.51,4.6-4.14,8.14-4.14M21.83,10.86h.07c.26,0,1.05-.02,1.51-1.32.64-1.85.06-4.59-.38-4.95,0,0-.09-.06-.38-.06-1.38,0-4.45,1.28-6.41,2.81.01.1.03.21.03.31,0,.14-.02.27-.04.4,1.23,1.03,3.52,2.81,5.6,2.81M6.26,10.86c1.98,0,4.14-1.6,5.41-2.65-.03-.18-.06-.37-.06-.56,0-.16.02-.32.04-.47-1.96-1.46-4.87-2.65-6.2-2.65-.28,0-.38.05-.38.05-.45.37-1.03,3.11-.39,4.96.45,1.3,1.24,1.31,1.51,1.32h.07M22.82,0c-3.58,0-6.69,2.35-8.45,4.02-.14-.02-.29-.03-.43-.03-.08,0-.16,0-.24.01C11.95,2.35,8.85,0,5.27,0c-.16,0-.33,0-.49.01C2.05.17.18,2.66.01,6.35c-.18,4.06,1.65,8.56,5.04,9.06.34.05.69.08,1.03.08,3.35,0,6.38-2.32,7.96-4.03,1.58,1.71,4.6,4.03,7.95,4.03.35,0,.69-.03,1.03-.08,3.39-.51,5.23-5,5.04-9.06C27.91,2.6,26.08.17,23.3.01c-.16,0-.32-.01-.48-.01h0ZM6.27,9.82h-.06c-.11,0-.32,0-.53-.62-.41-1.19-.19-2.86.04-3.6,1.08.13,3.22,1,4.85,2.1,0,.02,0,.04,0,.07-1.74,1.36-3.19,2.06-4.3,2.06h0ZM17.48,7.73c1.71-1.16,3.86-2,4.9-2.13.23.75.45,2.42.04,3.6-.21.61-.42.62-.54.62h-.05c-1.12,0-2.58-.7-4.35-2.09h0Z"/>
            </g>
            <g>
              <path class="cls-2" d="M14.21,23.71c-.15,0-.29-.03-.43-.08-.23-.08-5.5-2.06-5.54-6.53-.01-1.53.57-2.44,1.06-2.93.62-.63,1.47-.97,2.38-.97s1.84.36,2.53.98c.69-.62,1.6-.98,2.53-.98s1.76.35,2.38.97c.49.5,1.08,1.41,1.06,2.93-.04,4.47-5.32,6.45-5.54,6.53-.14.05-.28.08-.43.08Z"/>
              <path class="cls-16" d="M11.68,13.72h0c.91,0,1.88.41,2.53,1.22.65-.8,1.62-1.22,2.53-1.22.77,0,1.49.29,2.01.82.42.43.92,1.22.91,2.56-.04,4.12-4.99,5.97-5.2,6.05-.08.03-.17.04-.25.04s-.17-.01-.25-.04c-.21-.08-5.16-1.93-5.2-6.05-.01-1.34.49-2.14.91-2.56.52-.53,1.24-.82,2.01-.82M16.74,12.67c-.91,0-1.8.3-2.53.83-.73-.53-1.62-.83-2.53-.83-1.05,0-2.03.4-2.75,1.13-.56.57-1.23,1.6-1.21,3.31.05,4.83,5.65,6.93,5.88,7.02.2.07.4.11.61.11s.41-.04.61-.11c.24-.09,5.84-2.19,5.88-7.02.02-1.7-.65-2.74-1.21-3.31-.72-.73-1.7-1.13-2.75-1.13h0Z"/>
            </g>
            <g>
              <path class="cls-1" d="M14.17,14.54c-1.05,0-1.91-.86-1.91-1.91s.86-1.91,1.91-1.91,1.91.86,1.91,1.91-.86,1.91-1.91,1.91Z"/>
              <path class="cls-16" d="M14.17,11.24c.77,0,1.39.62,1.39,1.39s-.62,1.39-1.39,1.39-1.39-.62-1.39-1.39.62-1.39,1.39-1.39M14.17,10.19c-1.34,0-2.43,1.09-2.43,2.43s1.09,2.43,2.43,2.43,2.43-1.09,2.43-2.43-1.09-2.43-2.43-2.43h0Z"/>
            </g>
          </g>
          <g>
            <g>
              <g>
                <path class="cls-17" d="M22,14.07c-3.93,0-7.72-4.09-7.85-4.84-.04-.24-.05-.53-.03-.81-.03,0-.06,0-.08,0-.18,0-.33-.08-.42-.23-.08-.13-.24-.39.31-1.54,0-.03.02-.05.03-.07.02-.04.08-.16.11-.19l.17-.21s.03-.03.05-.05c.98-1.11,4.48-4.72,8.53-4.72.13,0,.27,0,.4.01,1.99.11,3.31,2.03,3.45,4.99.15,3.36-1.27,7.22-3.84,7.6-.28.04-.55.06-.83.06ZM15.62,8.02c1.22,1.04,3.77,3.21,6.21,3.21,1-.02,1.65-.61,1.99-1.77.61-2.06-.04-4.81-.59-5.18-.11-.08-.32-.12-.59-.12-1.78,0-5.42,1.7-7.22,3.38-.06.06-.12.11-.18.16.1.08.22.19.38.32Z"/>
                <path class="cls-15" d="M22.82,1.78c.13,0,.25,0,.38.01,4.7.27,3.68,11.25-.43,11.86-.26.04-.51.06-.77.06-3.84,0-7.41-4.06-7.49-4.54-.07-.4-.04-.95.08-1.23.02-.08.06-.13.1-.16,0,0,0,0,.01,0,.3,0,3.77,3.81,7.13,3.81.03,0,.06,0,.08,0,3.44-.07,2.72-6.81,1.52-7.62-.19-.12-.46-.18-.79-.18-1.83,0-5.56,1.7-7.47,3.47-.26.23-.46.41-.63.52-.25.19-.41.26-.51.26-.35,0,.07-.92.24-1.28h0c.04-.09.07-.15.07-.15,0,0,.07-.08.18-.21.01-.02.02-.03.04-.04.89-1.01,4.34-4.6,8.25-4.6M22.82,1.04s0,0,0,0c-4.13,0-7.68,3.58-8.75,4.79-.05.05-.1.1-.14.16l-.14.17c-.05.06-.09.13-.12.2h0s0,.02-.02.04c-.02.04-.04.08-.06.12-.45.94-.53,1.47-.28,1.87.1.16.26.29.44.35,0,.2.02.39.05.55.18,1.01,4.18,5.15,8.22,5.15.3,0,.59-.02.88-.06,2.77-.41,4.31-4.46,4.16-7.98-.14-3.17-1.6-5.21-3.79-5.34-.14,0-.28-.01-.42-.01h0ZM15.8,7.69c1.9-1.69,5.36-3.16,6.84-3.16.29,0,.38.06.38.06.44.36,1.02,3.1.38,4.95-.45,1.3-1.24,1.31-1.51,1.32h-.07c-2.31,0-4.88-2.19-5.97-3.12-.02-.02-.04-.03-.06-.05h0Z"/>
              </g>
              <path class="cls-6" d="M14.25,6.67l.02.1h0s.27,1.03.27,1.03c.17-.11.37-.29.63-.52,2.26-2.1,7.07-4.1,8.27-3.29,1.19.8,1.92,7.55-1.52,7.62-3.44.07-7.02-3.94-7.22-3.81-.04.02-.08.08-.1.16l.32,1.25c.77,1.35,6.51,6.06,9.08,3.51,2.57-2.53,2.55-10.67-1.14-10.59-3.1.05-7.21,3.28-8.29,4.27-.02.01-.03.02-.04.04-.18.16-.27.25-.27.25Z"/>
              <ellipse class="cls-9" cx="22.84" cy="2.43" rx=".81" ry=".41"/>
              <ellipse class="cls-8" cx="22.06" cy="2.93" rx=".32" ry=".16"/>
            </g>
            <g>
              <g>
                <path class="cls-17" d="M6.09,14.07c-.27,0-.55-.02-.83-.06-2.57-.38-3.99-4.24-3.84-7.6.13-2.96,1.46-4.87,3.45-4.99.13,0,.27-.01.4-.01,4.04,0,7.54,3.6,8.52,4.72.04.04.08.09.1.13l.13.14s.05.06.06.1c0,0,.07.14.08.17.55,1.14.39,1.41.31,1.53-.09.14-.24.23-.42.23-.03,0-.05,0-.08,0,.02.27,0,.57-.03.81-.13.75-3.92,4.84-7.85,4.84ZM5.45,4.16c-.27,0-.48.04-.59.12-.55.37-1.19,3.12-.59,5.18.34,1.16.98,1.75,1.91,1.77h0c2.52,0,5.06-2.17,6.29-3.21.15-.13.28-.24.38-.32-.06-.05-.11-.1-.18-.16-1.8-1.67-5.44-3.38-7.22-3.38Z"/>
                <path class="cls-15" d="M5.27,1.78c3.91,0,7.37,3.59,8.25,4.6.02.01.03.02.04.04.11.13.18.21.18.21,0,0,.02.06.07.13h0c.17.37.59,1.29.24,1.29-.1,0-.26-.08-.51-.26-.17-.11-.37-.29-.63-.52-1.91-1.77-5.64-3.47-7.47-3.47-.34,0-.61.06-.79.18-1.19.8-1.92,7.55,1.52,7.62.03,0,.06,0,.08,0,3.36,0,6.82-3.81,7.13-3.81,0,0,0,0,.01,0,.04.02.08.08.1.16.12.28.15.83.08,1.23-.08.48-3.65,4.54-7.49,4.54-.26,0-.51-.02-.77-.06C1.21,13.04.19,2.06,4.89,1.79c.13,0,.25-.01.38-.01M5.27,1.04c-.14,0-.28,0-.43.01-2.19.13-3.65,2.17-3.79,5.34-.16,3.52,1.38,7.57,4.15,7.98.29.04.58.06.88.06,4.03,0,8.04-4.14,8.21-5.15.03-.16.04-.35.05-.55.18-.06.33-.18.44-.35.25-.4.17-.93-.28-1.87-.01-.04-.03-.08-.05-.11-.01-.02-.02-.04-.03-.05-.03-.07-.07-.14-.12-.2l-.14-.17c-.04-.06-.09-.11-.14-.16-1.07-1.2-4.62-4.79-8.75-4.79h0ZM5.07,4.58s.1-.05.38-.05c1.49,0,4.95,1.47,6.84,3.16-.02.02-.04.03-.06.05-1.1.93-3.66,3.12-5.97,3.12h-.07c-.26,0-1.05-.02-1.51-1.32-.64-1.85-.06-4.59.39-4.96,0,0,0,0,0,0h0Z"/>
              </g>
              <path class="cls-10" d="M13.84,6.67l-.02.1h0s-.27,1.03-.27,1.03c-.17-.11-.37-.29-.63-.52-2.26-2.1-7.07-4.1-8.27-3.29-1.19.8-1.92,7.55,1.52,7.62,3.44.07,7.02-3.94,7.22-3.81.04.02.08.08.1.16l-.32,1.25c-.77,1.35-6.51,6.06-9.08,3.51C1.53,10.17,1.55,2.03,5.24,2.11c3.1.05,7.21,3.28,8.29,4.27.02.01.03.02.04.04.18.16.27.25.27.25Z"/>
              <ellipse class="cls-5" cx="5.25" cy="2.43" rx=".81" ry=".41"/>
              <ellipse class="cls-7" cx="6.03" cy="2.93" rx=".32" ry=".16"/>
            </g>
            <g>
              <ellipse class="cls-17" cx="13.94" cy="7.66" rx="1.96" ry="2.26"/>
              <path class="cls-15" d="M13.94,5.77c.88,0,1.59.85,1.59,1.89s-.71,1.89-1.59,1.89-1.59-.85-1.59-1.89.71-1.89,1.59-1.89M13.94,5.04c-1.28,0-2.32,1.18-2.32,2.62s1.04,2.62,2.32,2.62,2.32-1.18,2.32-2.62-1.04-2.62-2.32-2.62h0Z"/>
            </g>
            <ellipse class="cls-11" cx="13.96" cy="7.64" rx="1.28" ry="1.5"/>
            <g>
              <path class="cls-17" d="M14.21,22.82s-.09,0-.13-.02c-.2-.07-4.92-1.84-4.96-5.71,0-.96.27-1.76.81-2.3.45-.46,1.07-.71,1.75-.71.95,0,1.98.51,2.53,1.51.55-.99,1.57-1.51,2.53-1.51.67,0,1.29.25,1.75.71.54.54.81,1.34.81,2.3-.04,3.86-4.76,5.63-4.96,5.71-.04.01-.08.02-.13.02Z"/>
              <path class="cls-15" d="M16.74,14.45c1.13,0,2.2.82,2.19,2.64-.03,3.66-4.72,5.36-4.72,5.36,0,0-4.68-1.71-4.72-5.36-.02-1.82,1.06-2.64,2.19-2.64,1.14,0,2.34.84,2.53,2.33.19-1.49,1.39-2.33,2.53-2.33M16.74,13.72c-.91,0-1.88.41-2.53,1.22-.65-.8-1.62-1.22-2.53-1.22-.77,0-1.49.29-2.01.82-.42.43-.92,1.22-.91,2.56.04,4.12,4.99,5.97,5.2,6.05.08.03.17.04.25.04s.17-.01.25-.04c.21-.08,5.16-1.93,5.2-6.05.01-1.34-.49-2.14-.91-2.56-.52-.53-1.24-.82-2.01-.82h0Z"/>
            </g>
            <g>
              <circle class="cls-17" cx="14.17" cy="12.63" r="1.02"/>
              <path class="cls-15" d="M14.17,11.97c.36,0,.65.29.65.65s-.29.65-.65.65-.65-.29-.65-.65.29-.65.65-.65M14.17,11.24c-.77,0-1.39.62-1.39,1.39s.62,1.39,1.39,1.39,1.39-.62,1.39-1.39-.62-1.39-1.39-1.39h0Z"/>
            </g>
            <path class="cls-13" d="M12.48,21.08s-2.38-1.24-2.65-3.46.96-3.05,2.49-2.71,1.68,2.46,1.84,2.47.55-3.3,3.1-2.6,1.53,5.66-2.03,6.83"/>
            <ellipse class="cls-12" cx="17.07" cy="15.24" rx=".49" ry=".77" transform="translate(-2.54 27.02) rotate(-72.74)"/>
            <ellipse class="cls-14" cx="17.73" cy="16.12" rx=".24" ry=".33" transform="translate(-2.93 28.27) rotate(-72.74)"/>
          </g>
        </g>
      </g>
    </g>
  </g>
</svg>