<?xml version="1.0" encoding="UTF-8"?>
<svg xmlns="http://www.w3.org/2000/svg" xmlns:xlink="http://www.w3.org/1999/xlink" viewBox="0 0 37.71 26.12">
  <defs>
    <style>
      .cls-1 {
        fill: #490075;
      }

      .cls-2 {
        fill: #200f3b;
      }

      .cls-3 {
        fill: url(#linear-gradient-3);
      }

      .cls-4 {
        fill: url(#linear-gradient);
      }

      .cls-5 {
        isolation: isolate;
      }

      .cls-6 {
        fill: url(#linear-gradient-2);
      }

      .cls-6, .cls-7, .cls-8, .cls-9, .cls-10, .cls-11, .cls-12 {
        mix-blend-mode: overlay;
      }

      .cls-7 {
        fill: url(#linear-gradient-4);
      }

      .cls-8 {
        fill: url(#linear-gradient-6);
      }

      .cls-9 {
        fill: url(#linear-gradient-5);
      }

      .cls-10 {
        fill: url(#linear-gradient-7);
      }

      .cls-11 {
        opacity: .35;
      }

      .cls-12 {
        opacity: .65;
      }
    </style>
    <linearGradient id="linear-gradient" x1=".16" y1="14.06" x2="37.55" y2="14.06" gradientUnits="userSpaceOnUse">
      <stop offset="0" stop-color="#ec36c3"/>
      <stop offset=".1" stop-color="#ef3ac6"/>
      <stop offset=".6" stop-color="#fa49d3"/>
      <stop offset="1" stop-color="#ff4fd8"/>
    </linearGradient>
    <linearGradient id="linear-gradient-2" x1="17.77" y1="23.02" x2="19.77" y2="13.24" gradientUnits="userSpaceOnUse">
      <stop offset=".23" stop-color="#fff"/>
      <stop offset="1" stop-color="#bfbfbf" stop-opacity="0"/>
    </linearGradient>
    <linearGradient id="linear-gradient-3" x1=".21" y1="13.06" x2="37.53" y2="13.06" gradientUnits="userSpaceOnUse">
      <stop offset="0" stop-color="#5a3c96"/>
      <stop offset="1" stop-color="#593b95"/>
    </linearGradient>
    <linearGradient id="linear-gradient-4" x1="23.37" y1="-2.34" x2="20.16" y2="15.2" xlink:href="#linear-gradient-2"/>
    <linearGradient id="linear-gradient-5" x1="-106.3" y1="-119.39" x2="-103.43" y2="-117.19" gradientTransform="translate(130.18 120.86)" xlink:href="#linear-gradient-2"/>
    <linearGradient id="linear-gradient-6" x1="-107.92" y1="-119.13" x2="-105.04" y2="-116.94" gradientTransform="translate(130.53 120.91)" xlink:href="#linear-gradient-2"/>
    <linearGradient id="linear-gradient-7" x1="26.37" y1=".57" x2="24" y2="5.65" gradientUnits="userSpaceOnUse">
      <stop offset=".23" stop-color="#fff"/>
      <stop offset=".81" stop-color="#bfbfbf" stop-opacity="0"/>
    </linearGradient>
  </defs>
  <g class="cls-5">
    <g id="Layer_2" data-name="Layer 2">
      <g id="Layer_1-2" data-name="Layer 1">
        <g>
          <g>
            <path class="cls-4" d="M.33,25.53s-.06,0-.09-.03c-.07-.04-.09-.13-.06-.2.08-.17.16-.35.25-.53.96-1.95,2.71-4.5,5.19-7.59,4.55-5.68,10.74-12,13.01-13.63.89-.64,1.9-.96,3.01-.96,2.37,0,4.34,1.47,4.42,1.53.07.13,1.95,5.48,3.32,7.07,1.36,1.57,6.91,3.23,6.97,3.24.07.03.8.48,1.09,1.11.14.3.15.59.04.87-.18.46-.7.86-1.54,1.19-.11.04-.22.09-.35.13-.07.02-.15.03-.24.03-.29,0-.69-.12-1.2-.27-.89-.26-2.11-.62-3.61-.62-.99,0-1.97.16-2.94.48-5.17,1.7-7.03,7.15-7.05,7.21-.02.07-.08.11-.15.11,0,0,0,0-.01,0-.08,0-.14-.06-.15-.14,0-.04-.67-4.55-3.17-4.55-.13,0-.26.01-.4.04-2.92.52-5.76,4.84-5.79,4.89-.03.05-.08.07-.14.07-.01,0-.03,0-.04,0-.07-.02-.12-.08-.12-.14,0-.04-.35-3.83-3.01-3.83-.37,0-.78.07-1.22.22-2.81.95-5.6,3.93-5.9,4.27-.03.03-.08.05-.12.05Z"/>
            <path class="cls-2" d="M21.64,2.74c2.34,0,4.33,1.5,4.33,1.5,0,0,1.89,5.41,3.29,7.04,1.41,1.62,7.04,3.29,7.04,3.29,0,0,.72.43.99,1.02.25.54.11,1.24-1.42,1.84-.11.04-.22.08-.34.13-.05.02-.12.03-.19.03-.74,0-2.44-.89-4.81-.89-.9,0-1.9.13-2.99.49-5.31,1.74-7.15,7.31-7.15,7.31,0,0-.66-4.69-3.34-4.69-.14,0-.28.01-.42.04-3.02.54-5.9,4.96-5.9,4.96,0,0-.33-3.98-3.17-3.98-.38,0-.8.07-1.27.23-2.91.98-5.8,4.12-5.97,4.31.08-.17.16-.34.25-.53,1.05-2.12,2.96-4.81,5.17-7.56,4.7-5.86,10.78-12.02,12.98-13.6.96-.69,1.96-.93,2.91-.93M21.64,2.42h0c-1.14,0-2.18.33-3.1.99-2.33,1.68-8.41,7.88-13.05,13.66-2.49,3.1-4.24,5.66-5.21,7.62-.09.19-.18.37-.26.54-.07.15-.02.32.12.41.05.04.12.05.18.05.09,0,.18-.04.24-.11.12-.13,3.01-3.27,5.84-4.22.42-.14.81-.21,1.16-.21,2.51,0,2.84,3.65,2.85,3.68.01.14.11.26.25.29.03,0,.05,0,.08,0,.11,0,.21-.05.27-.15.03-.04,2.83-4.31,5.68-4.81.12-.02.25-.03.37-.03,2.37,0,3.01,4.37,3.01,4.41.02.15.14.27.29.28,0,0,.02,0,.03,0,.14,0,.26-.09.31-.22.02-.05,1.86-5.44,6.94-7.1.95-.31,1.92-.47,2.88-.47,1.47,0,2.68.36,3.56.61.52.15.93.27,1.25.27.11,0,.2-.01.29-.04.13-.04.24-.09.36-.13.9-.36,1.43-.77,1.64-1.28.13-.32.11-.67-.04-1-.31-.68-1.09-1.15-1.12-1.17-.02-.01-.05-.02-.07-.03-.06-.02-5.56-1.66-6.89-3.19-1.34-1.57-3.21-6.88-3.23-6.94-.02-.06-.06-.11-.11-.15-.08-.06-2.1-1.57-4.52-1.57h0Z"/>
          </g>
          <path class="cls-6" d="M35.87,17.44c-.11.04-.22.08-.34.13-.82.28-3.79-1.76-7.98-.38-5.31,1.74-7.15,7.31-7.15,7.31,0,0-.73-5.18-3.76-4.66-3.02.54-5.9,4.96-5.9,4.96,0,0-.43-5.11-4.44-3.75-2.91.98-5.8,4.12-5.97,4.31.08-.17.16-.34.25-.53,1.27-1.32,5.18-5.11,7.61-4.85,2.94.32,2.75,3.69,2.75,3.69,0,0,3.37-4.81,5.96-4.81s3.66,3.71,3.66,3.71c0,0,2.38-4.86,6.57-6.15,3.1-.95,6.95.3,8.74,1.01Z"/>
          <path class="cls-12" d="M37.29,15.6c-1.38.09-3.85.12-7.09-.43-5.1-.85-3.93-2.21-5.29-2.16-1.36.05-3.47,3.28-3.47,3.28,0,0,.26-6.73-2.41-5.72-2.57.98-4.59,4.23-4.75,4.48.08-.33,1.4-5.59-1.63-3.54-1.59,1.07-4.46,3.56-6.9,5.76,4.7-5.86,10.78-12.02,12.98-13.6,3.33-2.39,7.24.57,7.24.57,0,0,1.89,5.41,3.29,7.04,1.41,1.62,7.04,3.29,7.04,3.29,0,0,.72.43.99,1.02Z"/>
          <g>
            <g>
              <path class="cls-3" d="M20.43,25.96c-.08,0-.15-.07-.15-.16,0-.03-.14-3.16.55-7.82.09-.64.2-1.3.33-1.99.7-3.84,1.64-7.28,2.2-9.33.19-.68.35-1.29.4-1.54-.38.04-2.05.44-4.71,3.69-.98,1.19-2,2.66-3.03,4.38-2.65,4.42-5.12,11.63-5.39,12.44-.02.07-.09.11-.15.11-.02,0-.03,0-.05,0-.08-.03-.13-.12-.11-.2.58-1.97,2.12-6.8,2.79-8.49,1.97-4.99,4.04-8.43,5.16-10.27.42-.69.78-1.29.79-1.43,0-.35-.19-.35-.27-.35-.53,0-2.14.78-6.95,6.03C6.86,16.4,3.08,21.61,1.27,24.25l-.07.11c-.07.1-.13.19-.19.27l-.16.24c-.16.25-.28.43-.35.52-.03.04-.08.07-.13.07-.03,0-.06,0-.08-.02-.07-.04-.1-.14-.06-.21,1-1.93,2.03-3.79,3.17-5.7C14.44,1.09,23.34.16,25.01.16c.58,0,1.09.09,1.47.25,1.64.74,2.09,3.3,2.53,5.77.29,1.66.57,3.23,1.19,3.93,1.5,1.69,5.97,1.71,6.02,1.71.07,0,.12.04.15.1l.23.56.49,1.15.43,1.02s.02.1-.01.15-.07.07-.13.08c-.49.04-.96.06-1.43.06-4.42,0-8.04-1.69-8.81-4.11-.11-.35-.21-.7-.3-1.03-.22-.81-.47-1.74-.77-1.74-.24,0-.73.47-1.74,2.71-.37.83-.75,1.85-1.12,3.02-1.59,5.15-2.61,11.94-2.62,12.01-.01.08-.08.14-.16.14h0Z"/>
              <path class="cls-1" d="M25.01.33c.59,0,1.06.09,1.4.24,2.67,1.2,2.1,7.9,3.66,9.66,1.57,1.77,6.14,1.77,6.14,1.77l.23.56.49,1.16.43,1.02c-.48.04-.96.06-1.42.06-4.59,0-7.97-1.82-8.66-3.99-.44-1.4-.66-2.88-1.22-2.88-.4,0-.96.75-1.89,2.81-.39.88-.77,1.92-1.12,3.04,0,0,0,.03,0,.03-1.6,5.18-2.61,12-2.61,12,0,0-.15-3.09.54-7.79.09-.64.2-1.3.33-1.99,1.06-5.8,2.69-10.8,2.61-11.02,0-.03-.06-.04-.15-.04-.51,0-2.28.6-4.87,3.75-.92,1.11-1.94,2.55-3.05,4.4-2.39,3.98-4.65,10.23-5.4,12.47.59-1.98,2.13-6.83,2.78-8.48,2.86-7.25,5.96-11.23,5.96-11.76,0-.24-.08-.51-.43-.51-.71,0-2.54,1.14-7.07,6.08C6.59,16.45,2.75,21.82,1.14,24.15c0,0-.02.02-.03.03-.08.13-.16.24-.23.34-.25.38-.43.64-.51.76,1.06-2.06,2.13-3.95,3.17-5.7,0,0,.02-.03.03-.03C12.94,3.91,21.31.33,25.01.33M25.01,0h0c-1.69,0-10.66.93-21.72,19.38,0,0,0,.01-.01.02-1.14,1.91-2.21,3.83-3.2,5.74-.08.15-.03.34.12.43.05.03.11.05.17.05.1,0,.2-.05.27-.14.06-.09.17-.26.33-.49l.19-.28c.05-.07.12-.17.19-.27l.05-.07c1.83-2.66,5.6-7.87,10.54-13.24,4.95-5.4,6.43-5.98,6.83-5.98.06,0,.11,0,.11.19-.03.12-.39.71-.77,1.34-1.12,1.85-3.2,5.29-5.17,10.3-.67,1.69-2.21,6.53-2.79,8.5-.05.17.05.35.21.4.03.01.07.02.1.02.14,0,.26-.09.31-.22.27-.81,2.73-8.01,5.37-12.41,1.02-1.7,2.04-3.17,3.02-4.36,2.13-2.59,3.71-3.43,4.38-3.6-.07.3-.2.78-.35,1.31-.56,2.05-1.5,5.49-2.2,9.34-.13.69-.24,1.36-.33,2-.69,4.68-.55,7.82-.55,7.85,0,.17.14.3.31.31,0,0,.01,0,.02,0,.16,0,.3-.12.32-.28.01-.07,1.03-6.85,2.6-11.95,0-.01,0-.02,0-.03.37-1.17.74-2.18,1.11-3,1.11-2.46,1.52-2.61,1.59-2.61.19.07.44,1,.61,1.62.09.34.19.69.3,1.04.79,2.49,4.48,4.22,8.97,4.22.47,0,.96-.02,1.44-.06.1,0,.2-.07.25-.16.05-.09.06-.2.02-.3l-.43-1.02-.5-1.16-.23-.56c-.05-.12-.17-.2-.3-.2-.04,0-4.44-.02-5.9-1.66-.59-.66-.86-2.21-1.15-3.85-.44-2.52-.9-5.12-2.62-5.89-.4-.18-.93-.27-1.53-.27h0Z"/>
            </g>
            <path class="cls-11" d="M15.34,12.98c-.81,1.53-1.52,2.91-2.11,4.12,2.86-7.25,5.96-11.23,5.96-11.76,0-.71-.73-1.82-7.5,5.57C6.59,16.45,2.75,21.82,1.14,24.15c2.21-3.28,8.48-12.34,13.15-16.75,5.78-5.45,6.51-4.82,6.79-3.89.28.92-2.85,3.99-5.74,9.46Z"/>
            <path class="cls-11" d="M22.38,12.8c-.59,1.98-1.05,3.74-1.4,5.21.09-.64.2-1.3.33-1.99,1.06-5.8,2.69-10.8,2.61-11.02-.06-.18-1.98,0-5.02,3.71.95-1.33,2.91-3.8,4.83-4.62,2.67-1.14.28,3.27-1.36,8.71Z"/>
            <path class="cls-11" d="M37.36,14.73c-5.3.42-9.31-1.55-10.08-3.94-.75-2.39-.87-5.03-3.11-.08-.39.88-.77,1.92-1.12,3.04.48-1.87,1.89-6.89,3.21-7.24,1.62-.43,1.02,2.46,2.6,4.99,1.26,1.99,5.78,2.36,8.07,2.19l.43,1.02Z"/>
          </g>
          <path class="cls-7" d="M36.44,12.55c-1.01-.03-2.15-.14-3.38-.43-4.14-.96-4.15-2.5-4.69-5.67-.54-3.17-1.16-6.37-4.54-5.61-3.39.75-7.58,3.53-12.46,8.55-2.6,2.67-5.58,6.84-7.81,10.17C14.45,1.41,23.97-.51,26.41.57c2.67,1.2,2.1,7.9,3.66,9.66,1.57,1.77,6.14,1.77,6.14,1.77l.23.56Z"/>
          <ellipse class="cls-9" cx="23.66" cy="1.3" rx="1.24" ry=".64" transform="translate(.55 6.52) rotate(-15.86)"/>
          <ellipse class="cls-8" cx="23.66" cy="2.57" rx=".54" ry=".37" transform="translate(.2 6.56) rotate(-15.86)"/>
          <path class="cls-10" d="M18.78,3.31s4.24-2.83,6.6-2.21,2.2,3.13,2.65,5.2.45,3.29.45,3.29"/>
        </g>
      </g>
    </g>
  </g>
</svg>